PathFileType	4	(X/Y/Z)	/Users/mathieubourgeois/Desktop/Analyse/Traitement/Sujet_07/Data/Transformed_Sujet_07_velo_100.trc
DataRate	CameraRate	NumFrames	NumMarkers	Units	OrigDataRate	OrigDataStartFrame	OrigNumFrames
120.000000	120.000000	4	36	mm	120.000000	1165	1864
Frame#	Time	RKNE			RKNI			LKNI			LKNE			LANI			LANE			LTOE			LHEE			RHEE			RTOE			RANE			RANI			RFWT			LFWT			RBWT			LBWT			T10			C7			RSHO			LSHO			LWRA			LWRB			RWRA			RWRB			RCAR			LCAR			LHUM			LRAD			RRAD			RHUM			STRN			RFHD			LFHD			RBHD			LBHD			CLAV			
		X1	Y1	Z1	X2	Y2	Z2	X3	Y3	Z3	X4	Y4	Z4	X5	Y5	Z5	X6	Y6	Z6	X7	Y7	Z7	X8	Y8	Z8	X9	Y9	Z9	X10	Y10	Z10	X11	Y11	Z11	X12	Y12	Z12	X13	Y13	Z13	X14	Y14	Z14	X15	Y15	Z15	X16	Y16	Z16	X17	Y17	Z17	X18	Y18	Z18	X19	Y19	Z19	X20	Y20	Z20	X21	Y21	Z21	X22	Y22	Z22	X23	Y23	Z23	X24	Y24	Z24	X25	Y25	Z25	X26	Y26	Z26	X27	Y27	Z27	X28	Y28	Z28	X29	Y29	Z29	X30	Y30	Z30	X31	Y31	Z31	X32	Y32	Z32	X33	Y33	Z33	X34	Y34	Z34	X35	Y35	Z35	X36	Y36	Z36	

1166	9.708333333333334	-158.4494018554688	744.533447265625	238.2340545654296	-145.9383850097657	685.6709594726562	133.6984558105468	-33.24633026123047	867.0621948242188	-0.9531770944595909	-5.728337764739977	910.4345092773438	-106.0252914428712	-302.7672119140625	606.2047119140625	-25.34952545166023	-322.4468383789062	611.4618530273438	-114.3994903564454	-159.6770629882812	481.0695495605469	-94.40692138671879	-384.5011596679688	623.0386962890625	-75.38516235351571	-242.6080017089844	285.9513549804688	183.2192993164062	-8.877075195312523	159.611083984375	183.0927581787109	-186.2234191894532	289.4810791015625	225.0658111572265	-161.3255615234375	302.0088195800781	138.8997192382812	-261.4116821289062	1215.803344726562	155.2469787597655	-281.0166625976562	1220.0966796875	-56.16606521606457	-417.8212890625	1298.134399414062	122.0901565551756	-431.2193908691406	1300.015747070312	8.970918655395375	-173.9092102050781	1510.661987304688	35.91265487670887	75.33713531494141	1470.354248046875	49.29152297973624	69.20141601562497	1425.897094726562	191.997589111328	100.9209594726563	1452.59716796875	-74.91336822509773	315.1604919433594	933.2161254882812	-106.509880065918	275.1593933105469	889.4957885742188	-154.5853118896485	324.5128479003906	937.799072265625	251.7187347412109	280.3893737792968	900.1453247070312	299.9902038574219	367.3602905273437	922.420166015625	345.0671997070312	372.2156372070312	914.2659912109375	-192.6585693359375	97.97105407714845	1128.016723632812	-143.329574584961	160.6596374511719	1143.688110351562	-160.3804473876953	122.6458740234375	1124.290283203125	273.6064758300781	79.41082000732419	1097.990234375	227.5558624267578	-139.0782775878906	1287.982177734375	44.89868545532217	265.2705078125	1305.336059570312	132.0254974365234	269.8291320800781	1296.617309570312	-1.808504819870042	235.7459716796875	1454.25146484375	136.4230194091796	239.1730804443359	1461.398681640625	-7.158786773681701	33.1935806274414	1341.796508789062	49.42039108276359	
1167	9.716666666666667	-166.132308959961	740.02685546875	237.3863983154296	-152.9302062988282	681.117431640625	132.5671081542968	-27.42186737060547	875.103515625	-0.7023734450340841	-1.163784503936755	919.260986328125	-106.0277099609376	-292.5454711914062	609.8707275390625	-24.07622909545906	-312.670166015625	614.7794189453125	-113.0597229003907	-146.7194519042969	488.2702331542969	-93.6178359985352	-375.1646728515625	624.6063842773438	-73.37294769287118	-255.1352233886719	282.1967163085938	181.7371063232421	-21.98062515258791	154.9428253173828	182.8842620849609	-199.0439453125	285.10302734375	223.8696746826171	-173.5204620361328	297.5556335449219	137.8959197998046	-260.7373046875	1215.310791015625	155.6695404052733	-280.2257080078125	1220.371826171875	-55.58341598510754	-416.928955078125	1298.356079101562	121.9750366210936	-430.3665466308594	1300.641967773438	8.698594093322621	-173.0649261474609	1510.63037109375	35.98565292358387	76.43448638916016	1470.4853515625	48.30137634277335	70.5123596191406	1426.313842773438	190.888442993164	101.583969116211	1452.7646484375	-76.05788421630866	315.3223266601562	933.1345825195312	-106.6877517700195	275.3597717285156	889.3998413085938	-154.7641754150391	324.8015441894531	937.6970825195312	251.5827178955078	280.5496215820312	900.1362915039062	299.8739624023438	367.5200195312499	922.3805541992188	344.9861450195312	372.4401245117188	914.079345703125	-192.7212524414062	98.4368362426758	1128.151977539062	-144.8194580078126	161.2146148681641	1143.663330078125	-160.9750518798828	123.3072738647461	1124.598388671875	273.1155090332031	80.08221435546872	1098.357421875	227.0260009765624	-138.1812744140625	1288.1015625	44.55701446533194	266.0523071289062	1304.9638671875	130.6430664062499	270.63623046875	1296.654296875	-3.460173130035447	236.9731750488281	1453.914428710938	135.2774810791015	240.2601470947266	1461.49853515625	-8.271124839782773	33.93309783935546	1342.03271484375	48.40328216552727	
1168	9.725	-173.0575256347657	736.1444702148438	236.7325134277343	-159.6901245117188	677.1443481445312	131.656265258789	-22.20397758483887	882.943115234375	-0.4676027894020648	1.861331343650831	927.4144897460938	-107.050148010254	-282.047607421875	612.3550415039062	-22.97610282897957	-302.6430969238281	616.8775024414062	-111.8441848754884	-133.2848358154297	494.77490234375	-92.93582153320317	-365.0615844726562	625.6385498046875	-72.65186309814462	-268.2432556152344	279.3913269042969	179.8116302490234	-35.51873397827151	150.9844207763672	182.14453125	-212.4717102050782	281.652099609375	222.3283081054687	-186.1267547607422	293.9378356933594	136.5859832763671	-260.1423950195312	1214.757080078125	155.8732147216796	-279.6894836425781	1220.772216796875	-55.22933197021496	-416.2107238769531	1298.650024414062	121.8743286132811	-429.621826171875	1301.357177734375	8.533497810363636	-172.1511383056641	1510.51318359375	36.05989456176746	77.52727508544922	1470.542358398438	47.38703536987296	71.83717346191403	1426.6220703125	189.8576202392577	102.2953109741211	1452.7939453125	-77.12455749511726	315.5341186523438	932.9921264648438	-106.8918075561524	275.8510437011719	889.2151489257812	-156.0725555419922	325.1408386230468	937.5274047851562	251.358413696289	280.8121337890624	900.0816040039062	299.7020568847656	367.7444152832031	922.3262329101562	344.8096008300781	372.677734375	913.890380859375	-192.8504028320312	98.88228607177736	1128.14501953125	-145.7555541992188	161.699951171875	1143.595947265625	-161.6498260498047	123.9711380004883	1124.830322265625	272.7910461425781	80.63666534423825	1098.589233398438	226.7935791015624	-137.2088165283203	1288.124145507812	44.3026237487792	267.1158142089844	1304.556884765625	129.1974487304687	271.5498657226562	1296.735229492188	-5.08417177200322	238.2456970214843	1453.59765625	134.2115631103515	241.3737945556641	1461.601440429688	-9.296899795532285	34.77503585815429	1342.181396484375	47.50273513793937	
1169	9.733333333333333	-179.3775939941407	732.9423217773438	236.2645874023437	-166.4541473388672	673.9230346679688	131.1302947998046	-17.97490310668945	891.0541381835938	0.5401580333709149	5.985857009887709	935.4462280273438	-106.1098022460938	-271.3907775878906	613.64013671875	-22.00856018066413	-292.3527526855469	617.6279907226562	-110.8030624389649	-119.1521911621094	501.6702880859375	-93.01095581054692	-354.3838806152344	624.3042602539062	-71.53585052490243	-281.613525390625	277.6273803710938	177.3635864257812	-49.97716140747072	147.2710723876953	181.4204711914062	-226.2706604003907	279.1802978515625	220.4234008789062	-199.0983428955078	291.2460327148438	134.9187316894531	-259.6970520019531	1214.125854492188	155.9764862060546	-279.416259765625	1221.191162109375	-55.04071426391613	-415.5606689453125	1298.9033203125	121.8072204589842	-429.0301208496094	1302.12548828125	8.465735435485707	-171.1757202148438	1510.354125976562	36.11811065673817	78.58055114746094	1470.490234375	46.54310226440421	73.13813781738278	1426.852416992188	188.9823608398437	103.0262451171875	1452.736938476562	-78.01816558837898	315.8485717773438	932.787109375	-107.0470962524414	275.8257141113281	889.0008544921875	-155.1926879882813	325.4589233398437	937.377197265625	251.09716796875	281.1118774414062	900.0055541992188	299.5137634277344	367.9880676269531	922.2777709960938	344.6067199707031	372.9166870117188	913.6741943359375	-193.0000152587891	99.33098602294923	1128.025024414062	-146.541976928711	162.2095489501953	1143.459350585938	-162.2825012207032	124.6659698486328	1124.986450195312	272.5974121093749	81.21649932861325	1098.773071289062	226.6275939941406	-136.2018585205078	1288.063598632812	44.0819435119628	268.1692504882812	1304.389282226562	127.6567001342773	272.6021728515625	1296.85009765625	-6.538011074066207	239.4396820068359	1453.317626953125	133.169448852539	242.4349517822266	1461.679077148438	-10.240387916565	35.72355651855468	1342.210571289062	46.68849945068352	
